  0
SECTION
  2
HEADER
  9
$ACADVER
  1
AC1018
  9
$ACADMAINTVER
 70
     0
  9
$DWGCODEPAGE
  3
ANSI_932
  9
$INSBASE
 10
0.0
 20
0.0
 30
0.0
  9
$EXTMIN
 10
1.000000000000000E+20
 20
1.000000000000000E+20
 30
1.000000000000000E+20
  9
$EXTMAX
 10
-1.000000000000000E+20
 20
-1.000000000000000E+20
 30
-1.000000000000000E+20
  9
$LIMMIN
 10
0.0
 20
0.0
  9
$LIMMAX
 10
12.0
 20
9.0
  9
$ORTHOMODE
 70
     0
  9
$REGENMODE
 70
     1
  9
$FILLMODE
 70
     1
  9
$QTEXTMODE
 70
     0
  9
$MIRRTEXT
 70
     1
  9
$LTSCALE
 40
1.0
  9
$ATTMODE
 70
     1
  9
$TEXTSIZE
 40
0.2
  9
$TRACEWID
 40
0.05
  9
$TEXTSTYLE
  7
Standard
  9
$CLAYER
  8
0
  9
$CELTYPE
  6
ByLayer
  9
$CECOLOR
 62
   256
  9
$CELTSCALE
 40
1.0
  9
$DISPSILH
 70
     0
  9
$DIMSCALE
 40
1.0
  9
$DIMASZ
 40
0.18
  9
$DIMEXO
 40
0.0625
  9
$DIMDLI
 40
0.38
  9
$DIMRND
 40
0.0
  9
$DIMDLE
 40
0.0
  9
$DIMEXE
 40
0.18
  9
$DIMTP
 40
0.0
  9
$DIMTM
 40
0.0
  9
$DIMTXT
 40
0.18
  9
$DIMCEN
 40
0.09
  9
$DIMTSZ
 40
0.0
  9
$DIMTOL
 70
     0
  9
$DIMLIM
 70
     0
  9
$DIMTIH
 70
     1
  9
$DIMTOH
 70
     1
  9
$DIMSE1
 70
     0
  9
$DIMSE2
 70
     0
  9
$DIMTAD
 70
     0
  9
$DIMZIN
 70
     0
  9
$DIMBLK
  1

  9
$DIMASO
 70
     1
  9
$DIMSHO
 70
     1
  9
$DIMPOST
  1

  9
$DIMAPOST
  1

  9
$DIMALT
 70
     0
  9
$DIMALTD
 70
     2
  9
$DIMALTF
 40
25.4
  9
$DIMLFAC
 40
1.0
  9
$DIMTOFL
 70
     0
  9
$DIMTVP
 40
0.0
  9
$DIMTIX
 70
     0
  9
$DIMSOXD
 70
     0
  9
$DIMSAH
 70
     0
  9
$DIMBLK1
  1

  9
$DIMBLK2
  1

  9
$DIMSTYLE
  2
Standard
  9
$DIMCLRD
 70
     0
  9
$DIMCLRE
 70
     0
  9
$DIMCLRT
 70
     0
  9
$DIMTFAC
 40
1.0
  9
$DIMGAP
 40
0.09
  9
$DIMJUST
 70
     0
  9
$DIMSD1
 70
     0
  9
$DIMSD2
 70
     0
  9
$DIMTOLJ
 70
     1
  9
$DIMTZIN
 70
     0
  9
$DIMALTZ
 70
     0
  9
$DIMALTTZ
 70
     0
  9
$DIMUPT
 70
     0
  9
$DIMDEC
 70
     4
  9
$DIMTDEC
 70
     4
  9
$DIMALTU
 70
     2
  9
$DIMALTTD
 70
     2
  9
$DIMTXSTY
  7
Standard
  9
$DIMAUNIT
 70
     0
  9
$DIMADEC
 70
     0
  9
$DIMALTRND
 40
0.0
  9
$DIMAZIN
 70
     0
  9
$DIMDSEP
 70
    46
  9
$DIMATFIT
 70
     3
  9
$DIMFRAC
 70
     0
  9
$DIMLDRBLK
  1

  9
$DIMLUNIT
 70
     2
  9
$DIMLWD
 70
    -2
  9
$DIMLWE
 70
    -2
  9
$DIMTMOVE
 70
     0
  9
$LUNITS
 70
     2
  9
$LUPREC
 70
     4
  9
$SKETCHINC
 40
0.1
  9
$FILLETRAD
 40
0.5
  9
$AUNITS
 70
     0
  9
$AUPREC
 70
     0
  9
$MENU
  1
.
  9
$ELEVATION
 40
0.0
  9
$PELEVATION
 40
0.0
  9
$THICKNESS
 40
0.0
  9
$LIMCHECK
 70
     0
  9
$CHAMFERA
 40
0.5
  9
$CHAMFERB
 40
0.5
  9
$CHAMFERC
 40
1.0
  9
$CHAMFERD
 40
0.0
  9
$SKPOLY
 70
     0
  9
$TDCREATE
 40
2458706.733935185
  9
$TDUCREATE
 40
2458706.358935185
  9
$TDUPDATE
 40
2458706.733935197
  9
$TDUUPDATE
 40
2458706.358935197
  9
$TDINDWG
 40
0.0000000116
  9
$TDUSRTIMER
 40
0.0000000116
  9
$USRTIMER
 70
     1
  9
$ANGBASE
 50
0.0
  9
$ANGDIR
 70
     0
  9
$PDMODE
 70
     0
  9
$PDSIZE
 40
0.0
  9
$PLINEWID
 40
0.0
  9
$SPLFRAME
 70
     0
  9
$SPLINETYPE
 70
     6
  9
$SPLINESEGS
 70
     8
  9
$HANDSEED
  5
58
  9
$SURFTAB1
 70
     6
  9
$SURFTAB2
 70
     6
  9
$SURFTYPE
 70
     6
  9
$SURFU
 70
     6
  9
$SURFV
 70
     6
  9
$UCSBASE
  2

  9
$UCSNAME
  2

  9
$UCSORG
 10
0.0
 20
0.0
 30
0.0
  9
$UCSXDIR
 10
1.0
 20
0.0
 30
0.0
  9
$UCSYDIR
 10
0.0
 20
1.0
 30
0.0
  9
$UCSORTHOREF
  2

  9
$UCSORTHOVIEW
 70
     0
  9
$UCSORGTOP
 10
0.0
 20
0.0
 30
0.0
  9
$UCSORGBOTTOM
 10
0.0
 20
0.0
 30
0.0
  9
$UCSORGLEFT
 10
0.0
 20
0.0
 30
0.0
  9
$UCSORGRIGHT
 10
0.0
 20
0.0
 30
0.0
  9
$UCSORGFRONT
 10
0.0
 20
0.0
 30
0.0
  9
$UCSORGBACK
 10
0.0
 20
0.0
 30
0.0
  9
$PUCSBASE
  2

  9
$PUCSNAME
  2

  9
$PUCSORG
 10
0.0
 20
0.0
 30
0.0
  9
$PUCSXDIR
 10
1.0
 20
0.0
 30
0.0
  9
$PUCSYDIR
 10
0.0
 20
1.0
 30
0.0
  9
$PUCSORTHOREF
  2

  9
$PUCSORTHOVIEW
 70
     0
  9
$PUCSORGTOP
 10
0.0
 20
0.0
 30
0.0
  9
$PUCSORGBOTTOM
 10
0.0
 20
0.0
 30
0.0
  9
$PUCSORGLEFT
 10
0.0
 20
0.0
 30
0.0
  9
$PUCSORGRIGHT
 10
0.0
 20
0.0
 30
0.0
  9
$PUCSORGFRONT
 10
0.0
 20
0.0
 30
0.0
  9
$PUCSORGBACK
 10
0.0
 20
0.0
 30
0.0
  9
$USERI1
 70
     0
  9
$USERI2
 70
     0
  9
$USERI3
 70
     0
  9
$USERI4
 70
     0
  9
$USERI5
 70
     0
  9
$USERR1
 40
0.0
  9
$USERR2
 40
0.0
  9
$USERR3
 40
0.0
  9
$USERR4
 40
0.0
  9
$USERR5
 40
0.0
  9
$WORLDVIEW
 70
     1
  9
$SHADEDGE
 70
     3
  9
$SHADEDIF
 70
    70
  9
$TILEMODE
 70
     1
  9
$MAXACTVP
 70
    64
  9
$PINSBASE
 10
0.0
 20
0.0
 30
0.0
  9
$PLIMCHECK
 70
     0
  9
$PEXTMIN
 10
1.000000000000000E+20
 20
1.000000000000000E+20
 30
1.000000000000000E+20
  9
$PEXTMAX
 10
-1.000000000000000E+20
 20
-1.000000000000000E+20
 30
-1.000000000000000E+20
  9
$PLIMMIN
 10
0.0
 20
0.0
  9
$PLIMMAX
 10
12.0
 20
9.0
  9
$UNITMODE
 70
     0
  9
$VISRETAIN
 70
     1
  9
$PLINEGEN
 70
     0
  9
$PSLTSCALE
 70
     1
  9
$TREEDEPTH
 70
  3020
  9
$CMLSTYLE
  2
Standard
  9
$CMLJUST
 70
     0
  9
$CMLSCALE
 40
1.0
  9
$PROXYGRAPHICS
 70
     1
  9
$MEASUREMENT
 70
     0
  9
$CELWEIGHT
370
    -1
  9
$ENDCAPS
280
     0
  9
$JOINSTYLE
280
     0
  9
$LWDISPLAY
290
     1
  9
$INSUNITS
 70
     1
  9
$HYPERLINKBASE
  1

  9
$STYLESHEET
  1

  9
$XEDIT
290
     1
  9
$CEPSNTYPE
380
     0
  9
$PSTYLEMODE
290
     1
  9
$FINGERPRINTGUID
  2
{996B2113-CB6F-124E-4BF5-7748289590F2}
  9
$VERSIONGUID
  2
{FAEB1C32-E019-11D5-929B-00C0DF256EC4}
  9
$EXTNAMES
290
     1
  9
$PSVPSCALE
 40
0.0
  9
$OLESTARTUP
290
     0
  9
$SORTENTS
280
   127
  9
$INDEXCTL
280
     0
  9
$HIDETEXT
280
     1
  9
$XCLIPFRAME
290
     0
  9
$HALOGAP
280
     0
  9
$OBSCOLOR
 70
   257
  9
$OBSLTYPE
280
     0
  9
$INTERSECTIONDISPLAY
280
     0
  9
$INTERSECTIONCOLOR
 70
   257
  9
$DIMASSOC
280
     2
  9
$PROJECTNAME
  1

  0
ENDSEC
  0
SECTION
  2
CLASSES
  0
CLASS
  1
ACDBDICTIONARYWDFLT
  2
AcDbDictionaryWithDefault
  3
ObjectDBX Classes
 90
        0
 91
        3
280
     0
281
     0
  0
CLASS
  1
VISUALSTYLE
  2
AcDbVisualStyle
  3
ObjectDBX Classes
 90
     4095
 91
        3
280
     0
281
     0
  0
ENDSEC
  0
SECTION
  2
TABLES
  0
TABLE
  2
VPORT
  5
8
330
0
100
AcDbSymbolTable
 70
     1
  0
VPORT
  5
29
330
8
100
AcDbSymbolTableRecord
100
AcDbViewportTableRecord
  2
*Active
 70
     0
 10
0.0
 20
0.0
 11
1.0
 21
1.0
 12
0.0
 22
0.0
 13
0.0
 23
0.0
 14
0.5
 24
0.5
 15
0.5
 25
0.5
 16
0.0
 26
0.0
 36
1.0
 17
45.00035399265617
 27
-24.99967989826397
 37
0.0
 40
49.99935979652794
 41
1.800037207507648
 42
50.0
 43
0.0
 44
0.0
 50
0.0
 51
0.0
 71
     0
 72
   100
 73
     1
 74
     3
 75
     0
 76
     0
 77
     0
 78
     0
281
     0
 65
     1
110
0.0
120
0.0
130
0.0
111
1.0
121
0.0
131
0.0
112
0.0
122
1.0
132
0.0
 79
     0
146
0.0
  0
ENDTAB
  0
TABLE
  2
LTYPE
  5
5
330
0
100
AcDbSymbolTable
 70
     1
  0
LTYPE
  5
14
330
5
100
AcDbSymbolTableRecord
100
AcDbLinetypeTableRecord
  2
ByBlock
 70
     0
  3

 72
    65
 73
     0
 40
0.0
  0
LTYPE
  5
15
330
5
100
AcDbSymbolTableRecord
100
AcDbLinetypeTableRecord
  2
ByLayer
 70
     0
  3

 72
    65
 73
     0
 40
0.0
  0
LTYPE
  5
16
330
5
100
AcDbSymbolTableRecord
100
AcDbLinetypeTableRecord
  2
Continuous
 70
     0
  3
Solid line
 72
    65
 73
     0
 40
0.0
  0
ENDTAB
  0
TABLE
  2
LAYER
  5
2
330
0
100
AcDbSymbolTable
 70
     2
  0
LAYER
  5
10
330
2
100
AcDbSymbolTableRecord
100
AcDbLayerTableRecord
  2
0
 70
     0
 62
     7
  6
Continuous
370
    -3
390
F
  0
LAYER
  5
3B
330
2
100
AcDbSymbolTableRecord
100
AcDbLayerTableRecord
  2
Layer 1
 70
     0
 62
     7
  6
Continuous
370
    -3
390
F
  0
ENDTAB
  0
TABLE
  2
STYLE
  5
3
330
0
100
AcDbSymbolTable
 70
     1
  0
STYLE
  5
11
330
3
100
AcDbSymbolTableRecord
100
AcDbTextStyleTableRecord
  2
Standard
 70
     0
 40
0.0
 41
1.0
 50
0.0
 71
     0
 42
0.2
  3
txt
  4

  0
ENDTAB
  0
TABLE
  2
VIEW
  5
6
330
0
100
AcDbSymbolTable
 70
     0
  0
ENDTAB
  0
TABLE
  2
UCS
  5
7
330
0
100
AcDbSymbolTable
 70
     0
  0
ENDTAB
  0
TABLE
  2
APPID
  5
9
330
0
100
AcDbSymbolTable
 70
     1
  0
APPID
  5
12
330
9
100
AcDbSymbolTableRecord
100
AcDbRegAppTableRecord
  2
ACAD
 70
     0
  0
ENDTAB
  0
TABLE
  2
DIMSTYLE
  5
A
330
0
100
AcDbSymbolTable
 70
     1
100
AcDbDimStyleTable
  0
DIMSTYLE
105
27
330
A
100
AcDbSymbolTableRecord
100
AcDbDimStyleTableRecord
  2
Standard
 70
     0
340
11
  0
ENDTAB
  0
TABLE
  2
BLOCK_RECORD
  5
1
330
0
100
AcDbSymbolTable
 70
     4
  0
BLOCK_RECORD
  5
1F
330
1
100
AcDbSymbolTableRecord
100
AcDbBlockTableRecord
  2
*Model_Space
340
22
  0
BLOCK_RECORD
  5
1B
330
1
100
AcDbSymbolTableRecord
100
AcDbBlockTableRecord
  2
*Paper_Space
340
1E
  0
BLOCK_RECORD
  5
23
330
1
100
AcDbSymbolTableRecord
100
AcDbBlockTableRecord
  2
*Paper_Space0
340
26
  0
BLOCK_RECORD
  5
3C
330
1
100
AcDbSymbolTableRecord
100
AcDbBlockTableRecord
  2
block 2
340
0
102
{BLKREFS
331
3D
102
}
  0
BLOCK_RECORD
  5
44
330
1
100
AcDbSymbolTableRecord
100
AcDbBlockTableRecord
  2
block 3
340
0
102
{BLKREFS
331
45
102
}
  0
BLOCK_RECORD
  5
4A
330
1
100
AcDbSymbolTableRecord
100
AcDbBlockTableRecord
  2
block 4
340
0
102
{BLKREFS
331
4B
102
}
  0
ENDTAB
  0
ENDSEC
  0
SECTION
  2
BLOCKS
  0
BLOCK
  5
20
330
1F
100
AcDbEntity
  8
0
100
AcDbBlockBegin
  2
*Model_Space
 70
     0
 71
     0
 10
0.0
 20
0.0
 30
0.0
  3
*Model_Space
  1

  0
ENDBLK
  5
21
330
1F
100
AcDbEntity
  8
0
100
AcDbBlockEnd
  0
BLOCK
  5
1C
330
1B
100
AcDbEntity
 67
     1
  8
0
100
AcDbBlockBegin
  2
*Paper_Space
 70
     0
 71
     0
 10
0.0
 20
0.0
 30
0.0
  3
*Paper_Space
  1

  0
ENDBLK
  5
1D
330
1B
100
AcDbEntity
 67
     1
  8
0
100
AcDbBlockEnd
  0
BLOCK
  5
24
330
23
100
AcDbEntity
  8
0
100
AcDbBlockBegin
  2
*Paper_Space0
 70
     0
 71
     0
 10
0.0
 20
0.0
 30
0.0
  3
*Paper_Space0
  1

  0
ENDBLK
  5
25
330
23
100
AcDbEntity
  8
0
100
AcDbBlockEnd
  0
BLOCK
  5
3E
330
3C
100
AcDbEntity
  8
0
100
AcDbBlockBegin
  2
block 2
 70
     0
 71
     0
 10
0.0
 20
0.0
 30
0.0
  3
block 2
  1

  0
SPLINE
  5
40
330
3C
100
AcDbEntity
  8
Layer 1
 62
   240
420
 15539236
370
    35
100
AcDbSpline
210
0.0
220
0.0
230
1.0
 70
    11
 71
     3
 72
    17
 73
    13
 74
     0
 42
0.0000000001
 43
0.0000000001
 40
0.0
 40
0.0
 40
0.0
 40
0.0
 40
1.0
 40
1.0
 40
1.0
 40
2.0
 40
2.0
 40
2.0
 40
3.0
 40
3.0
 40
3.0
 40
4.0
 40
4.0
 40
4.0
 40
4.0
 10
39.27632784391356
 20
-3.08025987336188
 30
0.0
 10
39.27632784391356
 20
-3.563434515168169
 30
0.0
 10
38.88462048724065
 20
-3.954969617066813
 30
0.0
 10
38.40161810020862
 20
-3.954969617066813
 30
0.0
 10
37.91827120362807
 20
-3.954969617066813
 30
0.0
 10
37.52639159218091
 20
-3.563434515168169
 30
0.0
 10
37.52639159218091
 20
-3.08025987336188
 30
0.0
 10
37.52639159218091
 20
-2.59708523155559
 30
0.0
 10
37.91827120362807
 20
-2.205205620108421
 30
0.0
 10
38.40161810020862
 20
-2.205205620108421
 30
0.0
 10
38.88462048724065
 20
-2.205205620108421
 30
0.0
 10
39.27632784391356
 20
-2.59708523155559
 30
0.0
 10
39.27632784391356
 20
-3.08025987336188
 30
0.0
  0
SPLINE
  5
41
330
3C
100
AcDbEntity
  8
Layer 1
 62
   240
420
 15539236
370
    35
100
AcDbSpline
210
0.0
220
0.0
230
1.0
 70
    11
 71
     3
 72
    17
 73
    13
 74
     0
 42
0.0000000001
 43
0.0000000001
 40
0.0
 40
0.0
 40
0.0
 40
0.0
 40
1.0
 40
1.0
 40
1.0
 40
2.0
 40
2.0
 40
2.0
 40
3.0
 40
3.0
 40
3.0
 40
4.0
 40
4.0
 40
4.0
 40
4.0
 10
94.04008244176777
 20
-3.080087618587617
 30
0.0
 10
94.04008244176777
 20
-3.563090005619644
 30
0.0
 10
93.64803057554633
 20
-3.954625107518289
 30
0.0
 10
93.1650281885143
 20
-3.954625107518289
 30
0.0
 10
92.68202580148228
 20
-3.954625107518289
 30
0.0
 10
92.28997393526085
 20
-3.563090005619644
 30
0.0
 10
92.28997393526085
 20
-3.080087618587617
 30
0.0
 10
92.28997393526085
 20
-2.596912976781327
 30
0.0
 10
92.68202580148228
 20
-2.205205620108421
 30
0.0
 10
93.1650281885143
 20
-2.205205620108421
 30
0.0
 10
93.64803057554633
 20
-2.205205620108421
 30
0.0
 10
94.04008244176777
 20
-2.596912976781327
 30
0.0
 10
94.04008244176777
 20
-3.080087618587617
 30
0.0
  0
ENDBLK
  5
3F
330
3C
100
AcDbEntity
  8
0
100
AcDbBlockEnd
  0
BLOCK
  5
46
330
44
100
AcDbEntity
  8
0
100
AcDbBlockBegin
  2
block 3
 70
     0
 71
     0
 10
0.0
 20
0.0
 30
0.0
  3
block 3
  1

  0
SPLINE
  5
48
330
44
100
AcDbEntity
  8
Layer 1
 62
    22
420
 15409703
370
    35
100
AcDbSpline
210
0.0
220
0.0
230
1.0
 70
    11
 71
     3
 72
    17
 73
    13
 74
     0
 42
0.0000000001
 43
0.0000000001
 40
0.0
 40
0.0
 40
0.0
 40
0.0
 40
1.0
 40
1.0
 40
1.0
 40
2.0
 40
2.0
 40
2.0
 40
3.0
 40
3.0
 40
3.0
 40
4.0
 40
4.0
 40
4.0
 40
4.0
 10
123.814664682588
 20
-19.67028943735673
 30
0.0
 10
122.215451358335
 20
-19.67028943735673
 30
0.0
 10
120.9149278126532
 20
-20.97115749258707
 30
0.0
 10
120.9149278126532
 20
-22.57037081684005
 30
0.0
 10
120.9149278126532
 20
-24.16941188631876
 30
0.0
 10
122.215451358335
 20
-25.47062445109762
 30
0.0
 10
123.814664682588
 20
-25.47062445109762
 30
0.0
 10
125.413878006841
 20
-25.47062445109762
 30
0.0
 10
126.7150905716198
 20
-24.16941188631876
 30
0.0
 10
126.7150905716198
 20
-22.57037081684005
 30
0.0
 10
126.7150905716198
 20
-20.97115749258707
 30
0.0
 10
125.413878006841
 20
-19.67028943735673
 30
0.0
 10
123.814664682588
 20
-19.67028943735673
 30
0.0
  0
SPLINE
  5
49
330
44
100
AcDbEntity
  8
Layer 1
 62
    22
420
 15409703
370
    35
100
AcDbSpline
210
0.0
220
0.0
230
1.0
 70
    11
 71
     3
 72
    17
 73
    13
 74
     0
 42
0.0000000001
 43
0.0000000001
 40
0.0
 40
0.0
 40
0.0
 40
0.0
 40
1.0
 40
1.0
 40
1.0
 40
2.0
 40
2.0
 40
2.0
 40
3.0
 40
3.0
 40
3.0
 40
4.0
 40
4.0
 40
4.0
 40
4.0
 10
7.751120332263609
 20
-19.67028943735673
 30
0.0
 10
6.152423772333422
 20
-19.67028943735673
 30
0.0
 10
4.851383462328821
 20
-20.97115749258707
 30
0.0
 10
4.851383462328821
 20
-22.57037081684005
 30
0.0
 10
4.851383462328821
 20
-24.16941188631876
 30
0.0
 10
6.152423772333422
 20
-25.47062445109762
 30
0.0
 10
7.751120332263609
 20
-25.47062445109762
 30
0.0
 10
9.350333656516584
 20
-25.47062445109762
 30
0.0
 10
10.65137396652118
 20
-24.16941188631876
 30
0.0
 10
10.65137396652118
 20
-22.57037081684005
 30
0.0
 10
10.65137396652118
 20
-20.97115749258707
 30
0.0
 10
9.350333656516584
 20
-19.67028943735673
 30
0.0
 10
7.751120332263609
 20
-19.67028943735673
 30
0.0
  0
ENDBLK
  5
47
330
44
100
AcDbEntity
  8
0
100
AcDbBlockEnd
  0
BLOCK
  5
4C
330
4A
100
AcDbEntity
  8
0
100
AcDbBlockBegin
  2
block 4
 70
     0
 71
     0
 10
0.0
 20
0.0
 30
0.0
  3
block 4
  1

  0
SPLINE
  5
4E
330
4A
100
AcDbEntity
  8
Layer 1
 62
   240
420
 15539236
370
    35
100
AcDbSpline
210
0.0
220
0.0
230
1.0
 70
    11
 71
     3
 72
    17
 73
    13
 74
     0
 42
0.0000000001
 43
0.0000000001
 40
0.0
 40
0.0
 40
0.0
 40
0.0
 40
1.0
 40
1.0
 40
1.0
 40
2.0
 40
2.0
 40
2.0
 40
3.0
 40
3.0
 40
3.0
 40
4.0
 40
4.0
 40
4.0
 40
4.0
 10
108.4622856716692
 20
10.23038329822366
 30
0.0
 10
108.4622856716692
 20
9.40201008879533
 30
0.0
 10
107.7904920520454
 20
8.730388723945875
 30
0.0
 10
106.9622910973914
 20
8.730388723945875
 30
0.0
 10
106.1340901427373
 20
8.730388723945875
 30
0.0
 10
105.4622965231136
 20
9.40201008879533
 30
0.0
 10
105.4622965231136
 20
10.23038329822366
 30
0.0
 10
105.4622965231136
 20
11.05875650765198
 30
0.0
 10
106.1340901427373
 20
11.73037787250143
 30
0.0
 10
106.9622910973914
 20
11.73037787250143
 30
0.0
 10
107.7904920520454
 20
11.73037787250143
 30
0.0
 10
108.4622856716692
 20
11.05875650765198
 30
0.0
 10
108.4622856716692
 20
10.23038329822366
 30
0.0
  0
SPLINE
  5
4F
330
4A
100
AcDbEntity
  8
Layer 1
 62
   240
420
 15539236
370
    35
100
AcDbSpline
210
0.0
220
0.0
230
1.0
 70
    11
 71
     3
 72
    17
 73
    13
 74
     0
 42
0.0000000001
 43
0.0000000001
 40
0.0
 40
0.0
 40
0.0
 40
0.0
 40
1.0
 40
1.0
 40
1.0
 40
2.0
 40
2.0
 40
2.0
 40
3.0
 40
3.0
 40
3.0
 40
4.0
 40
4.0
 40
4.0
 40
4.0
 10
94.7356472202397
 20
10.23038329822366
 30
0.0
 10
94.7356472202397
 20
9.40201008879533
 30
0.0
 10
94.06385360061599
 20
8.730388723945875
 30
0.0
 10
93.23565264596192
 20
8.730388723945875
 30
0.0
 10
92.40745169130787
 20
8.730388723945875
 30
0.0
 10
91.73565807168414
 20
9.40201008879533
 30
0.0
 10
91.73565807168414
 20
10.23038329822366
 30
0.0
 10
91.73565807168414
 20
11.05875650765198
 30
0.0
 10
92.40745169130787
 20
11.73037787250143
 30
0.0
 10
93.23565264596192
 20
11.73037787250143
 30
0.0
 10
94.06385360061599
 20
11.73037787250143
 30
0.0
 10
94.7356472202397
 20
11.05875650765198
 30
0.0
 10
94.7356472202397
 20
10.23038329822366
 30
0.0
  0
SPLINE
  5
50
330
4A
100
AcDbEntity
  8
Layer 1
 62
   240
420
 15539236
370
    35
100
AcDbSpline
210
0.0
220
0.0
230
1.0
 70
    11
 71
     3
 72
    17
 73
    13
 74
     0
 42
0.0000000001
 43
0.0000000001
 40
0.0
 40
0.0
 40
0.0
 40
0.0
 40
1.0
 40
1.0
 40
1.0
 40
2.0
 40
2.0
 40
2.0
 40
3.0
 40
3.0
 40
3.0
 40
4.0
 40
4.0
 40
4.0
 40
4.0
 10
81.0096977879073
 20
10.23038329822366
 30
0.0
 10
81.0096977879073
 20
9.40201008879533
 30
0.0
 10
80.33790416828359
 20
8.730388723945875
 30
0.0
 10
79.50970321362952
 20
8.730388723945875
 30
0.0
 10
78.68150225897546
 20
8.730388723945875
 30
0.0
 10
78.00970863935174
 20
9.40201008879533
 30
0.0
 10
78.00970863935174
 20
10.23038329822366
 30
0.0
 10
78.00970863935174
 20
11.05875650765198
 30
0.0
 10
78.68150225897546
 20
11.73037787250143
 30
0.0
 10
79.50970321362952
 20
11.73037787250143
 30
0.0
 10
80.33790416828359
 20
11.73037787250143
 30
0.0
 10
81.0096977879073
 20
11.05875650765198
 30
0.0
 10
81.0096977879073
 20
10.23038329822366
 30
0.0
  0
SPLINE
  5
51
330
4A
100
AcDbEntity
  8
Layer 1
 62
   240
420
 15539236
370
    35
100
AcDbSpline
210
0.0
220
0.0
230
1.0
 70
    11
 71
     3
 72
    17
 73
    13
 74
     0
 42
0.0000000001
 43
0.0000000001
 40
0.0
 40
0.0
 40
0.0
 40
0.0
 40
1.0
 40
1.0
 40
1.0
 40
2.0
 40
2.0
 40
2.0
 40
3.0
 40
3.0
 40
3.0
 40
4.0
 40
4.0
 40
4.0
 40
4.0
 10
67.2837483555749
 20
10.23038329822366
 30
0.0
 10
67.2837483555749
 20
9.40201008879533
 30
0.0
 10
66.61195473595119
 20
8.730388723945875
 30
0.0
 10
65.78375378129712
 20
8.730388723945875
 30
0.0
 10
64.95555282664306
 20
8.730388723945875
 30
0.0
 10
64.28375920701934
 20
9.40201008879533
 30
0.0
 10
64.28375920701934
 20
10.23038329822366
 30
0.0
 10
64.28375920701934
 20
11.05875650765198
 30
0.0
 10
64.95555282664306
 20
11.73037787250143
 30
0.0
 10
65.78375378129712
 20
11.73037787250143
 30
0.0
 10
66.61195473595119
 20
11.73037787250143
 30
0.0
 10
67.2837483555749
 20
11.05875650765198
 30
0.0
 10
67.2837483555749
 20
10.23038329822366
 30
0.0
  0
SPLINE
  5
52
330
4A
100
AcDbEntity
  8
Layer 1
 62
   240
420
 15539236
370
    35
100
AcDbSpline
210
0.0
220
0.0
230
1.0
 70
    11
 71
     3
 72
    17
 73
    13
 74
     0
 42
0.0000000001
 43
0.0000000001
 40
0.0
 40
0.0
 40
0.0
 40
0.0
 40
1.0
 40
1.0
 40
1.0
 40
2.0
 40
2.0
 40
2.0
 40
3.0
 40
3.0
 40
3.0
 40
4.0
 40
4.0
 40
4.0
 40
4.0
 10
53.55710990414545
 20
10.23038329822366
 30
0.0
 10
53.55710990414545
 20
9.40201008879533
 30
0.0
 10
52.88531628452173
 20
8.730388723945875
 30
0.0
 10
52.05711532986767
 20
8.730388723945875
 30
0.0
 10
51.22891437521361
 20
8.730388723945875
 30
0.0
 10
50.55712075558989
 20
9.40201008879533
 30
0.0
 10
50.55712075558989
 20
10.23038329822366
 30
0.0
 10
50.55712075558989
 20
11.05875650765198
 30
0.0
 10
51.22891437521361
 20
11.73037787250143
 30
0.0
 10
52.05711532986767
 20
11.73037787250143
 30
0.0
 10
52.88531628452173
 20
11.73037787250143
 30
0.0
 10
53.55710990414545
 20
11.05875650765198
 30
0.0
 10
53.55710990414545
 20
10.23038329822366
 30
0.0
  0
SPLINE
  5
53
330
4A
100
AcDbEntity
  8
Layer 1
 62
   240
420
 15539236
370
    35
100
AcDbSpline
210
0.0
220
0.0
230
1.0
 70
    11
 71
     3
 72
    17
 73
    13
 74
     0
 42
0.0000000001
 43
0.0000000001
 40
0.0
 40
0.0
 40
0.0
 40
0.0
 40
1.0
 40
1.0
 40
1.0
 40
2.0
 40
2.0
 40
2.0
 40
3.0
 40
3.0
 40
3.0
 40
4.0
 40
4.0
 40
4.0
 40
4.0
 10
39.83098821703878
 20
10.23038329822366
 30
0.0
 10
39.83098821703878
 20
9.40201008879533
 30
0.0
 10
39.15919459741507
 20
8.730388723945875
 30
0.0
 10
38.330993642761
 20
8.730388723945875
 30
0.0
 10
37.50279268810694
 20
8.730388723945875
 30
0.0
 10
36.83099906848322
 20
9.40201008879533
 30
0.0
 10
36.83099906848322
 20
10.23038329822366
 30
0.0
 10
36.83099906848322
 20
11.05875650765198
 30
0.0
 10
37.50279268810694
 20
11.73037787250143
 30
0.0
 10
38.330993642761
 20
11.73037787250143
 30
0.0
 10
39.15919459741507
 20
11.73037787250143
 30
0.0
 10
39.83098821703878
 20
11.05875650765198
 30
0.0
 10
39.83098821703878
 20
10.23038329822366
 30
0.0
  0
SPLINE
  5
54
330
4A
100
AcDbEntity
  8
Layer 1
 62
   240
420
 15539236
370
    35
100
AcDbSpline
210
0.0
220
0.0
230
1.0
 70
    11
 71
     3
 72
    17
 73
    13
 74
     0
 42
0.0000000001
 43
0.0000000001
 40
0.0
 40
0.0
 40
0.0
 40
0.0
 40
1.0
 40
1.0
 40
1.0
 40
2.0
 40
2.0
 40
2.0
 40
3.0
 40
3.0
 40
3.0
 40
4.0
 40
4.0
 40
4.0
 40
4.0
 10
26.10486652993212
 20
10.23038329822366
 30
0.0
 10
26.10486652993212
 20
9.40201008879533
 30
0.0
 10
25.4330729103084
 20
8.730388723945875
 30
0.0
 10
24.60487195565434
 20
8.730388723945875
 30
0.0
 10
23.77667100100028
 20
8.730388723945875
 30
0.0
 10
23.10487738137656
 20
9.40201008879533
 30
0.0
 10
23.10487738137656
 20
10.23038329822366
 30
0.0
 10
23.10487738137656
 20
11.05875650765198
 30
0.0
 10
23.77667100100028
 20
11.73037787250143
 30
0.0
 10
24.60487195565434
 20
11.73037787250143
 30
0.0
 10
25.4330729103084
 20
11.73037787250143
 30
0.0
 10
26.10486652993212
 20
11.05875650765198
 30
0.0
 10
26.10486652993212
 20
10.23038329822366
 30
0.0
  0
SPLINE
  5
55
330
4A
100
AcDbEntity
  8
Layer 1
 62
   240
420
 15539236
370
    35
100
AcDbSpline
210
0.0
220
0.0
230
1.0
 70
    11
 71
     3
 72
    29
 73
    25
 74
     0
 42
0.0000000001
 43
0.0000000001
 40
0.0
 40
0.0
 40
0.0
 40
0.0
 40
1.0
 40
1.0
 40
1.0
 40
2.0
 40
2.0
 40
2.0
 40
3.0
 40
3.0
 40
3.0
 40
4.0
 40
4.0
 40
4.0
 40
5.0
 40
5.0
 40
5.0
 40
6.0
 40
6.0
 40
6.0
 40
7.0
 40
7.0
 40
7.0
 40
8.0
 40
8.0
 40
8.0
 40
8.0
 10
16.31803927543438
 20
10.23038329822366
 30
0.0
 10
16.31803927543438
 20
9.40201008879533
 30
0.0
 10
15.64641791058492
 20
8.730388723945875
 30
0.0
 10
14.8180447011566
 20
8.730388723945875
 30
0.0
 10
14.8180447011566
 20
8.730388723945875
 30
0.0
 10
6.939283581164485
 20
8.730388723945875
 30
0.0
 10
6.939283581164485
 20
8.730388723945875
 30
0.0
 10
6.110910371736161
 20
8.730388723945875
 30
0.0
 10
5.439289006886706
 20
9.40201008879533
 30
0.0
 10
5.439289006886706
 20
10.23038329822366
 30
0.0
 10
5.439289006886706
 20
10.23038329822366
 30
0.0
 10
5.439289006886706
 20
10.23038329822366
 30
0.0
 10
5.439289006886706
 20
10.23038329822366
 30
0.0
 10
5.439289006886706
 20
11.05875650765198
 30
0.0
 10
6.110910371736161
 20
11.73037787250143
 30
0.0
 10
6.939283581164485
 20
11.73037787250143
 30
0.0
 10
6.939283581164485
 20
11.73037787250143
 30
0.0
 10
14.8180447011566
 20
11.73037787250143
 30
0.0
 10
14.8180447011566
 20
11.73037787250143
 30
0.0
 10
15.64641791058492
 20
11.73037787250143
 30
0.0
 10
16.31803927543438
 20
11.05875650765198
 30
0.0
 10
16.31803927543438
 20
10.23038329822366
 30
0.0
 10
16.31803927543438
 20
10.23038329822366
 30
0.0
 10
16.31803927543438
 20
10.23038329822366
 30
0.0
 10
16.31803927543438
 20
10.23038329822366
 30
0.0
  0
SPLINE
  5
56
330
4A
100
AcDbEntity
  8
Layer 1
 62
   240
420
 15539236
370
    35
100
AcDbSpline
210
0.0
220
0.0
230
1.0
 70
    11
 71
     3
 72
    29
 73
    25
 74
     0
 42
0.0000000001
 43
0.0000000001
 40
0.0
 40
0.0
 40
0.0
 40
0.0
 40
1.0
 40
1.0
 40
1.0
 40
2.0
 40
2.0
 40
2.0
 40
3.0
 40
3.0
 40
3.0
 40
4.0
 40
4.0
 40
4.0
 40
5.0
 40
5.0
 40
5.0
 40
6.0
 40
6.0
 40
6.0
 40
7.0
 40
7.0
 40
7.0
 40
8.0
 40
8.0
 40
8.0
 40
8.0
 10
126.1273572818362
 20
10.23038329822366
 30
0.0
 10
126.1273572818362
 20
9.40201008879533
 30
0.0
 10
125.4562526813096
 20
8.730388723945875
 30
0.0
 10
124.6273627075584
 20
8.730388723945875
 30
0.0
 10
124.6273627075584
 20
8.730388723945875
 30
0.0
 10
116.7491183518891
 20
8.730388723945875
 30
0.0
 10
116.7491183518891
 20
8.730388723945875
 30
0.0
 10
115.920228378138
 20
8.730388723945875
 30
0.0
 10
115.2491237776113
 20
9.40201008879533
 30
0.0
 10
115.2491237776113
 20
10.23038329822366
 30
0.0
 10
115.2491237776113
 20
10.23038329822366
 30
0.0
 10
115.2491237776113
 20
10.23038329822366
 30
0.0
 10
115.2491237776113
 20
10.23038329822366
 30
0.0
 10
115.2491237776113
 20
11.05875650765198
 30
0.0
 10
115.920228378138
 20
11.73037787250143
 30
0.0
 10
116.7491183518891
 20
11.73037787250143
 30
0.0
 10
116.7491183518891
 20
11.73037787250143
 30
0.0
 10
124.6273627075584
 20
11.73037787250143
 30
0.0
 10
124.6273627075584
 20
11.73037787250143
 30
0.0
 10
125.4562526813096
 20
11.73037787250143
 30
0.0
 10
126.1273572818362
 20
11.05875650765198
 30
0.0
 10
126.1273572818362
 20
10.23038329822366
 30
0.0
 10
126.1273572818362
 20
10.23038329822366
 30
0.0
 10
126.1273572818362
 20
10.23038329822366
 30
0.0
 10
126.1273572818362
 20
10.23038329822366
 30
0.0
  0
ENDBLK
  5
4D
330
4A
100
AcDbEntity
  8
0
100
AcDbBlockEnd
  0
ENDSEC
  0
SECTION
  2
ENTITIES
  0
INSERT
  5
3D
330
1F
100
AcDbEntity
  8
Layer 1
100
AcDbBlockReference
  2
block 2
 10
0.0
 20
0.0
 30
0.0
  0
SPLINE
  5
42
330
1F
100
AcDbEntity
  8
Layer 1
 62
   179
420
  2236191
370
    35
100
AcDbSpline
210
0.0
220
0.0
230
1.0
 70
    11
 71
     3
 72
   110
 73
   106
 74
     0
 42
0.0000000001
 43
0.0000000001
 40
0.0
 40
0.0
 40
0.0
 40
0.0
 40
1.0
 40
1.0
 40
1.0
 40
2.0
 40
2.0
 40
2.0
 40
3.0
 40
3.0
 40
3.0
 40
4.0
 40
4.0
 40
4.0
 40
5.0
 40
5.0
 40
5.0
 40
6.0
 40
6.0
 40
6.0
 40
7.0
 40
7.0
 40
7.0
 40
8.0
 40
8.0
 40
8.0
 40
9.0
 40
9.0
 40
9.0
 40
10.0
 40
10.0
 40
10.0
 40
11.0
 40
11.0
 40
11.0
 40
12.0
 40
12.0
 40
12.0
 40
13.0
 40
13.0
 40
13.0
 40
14.0
 40
14.0
 40
14.0
 40
15.0
 40
15.0
 40
15.0
 40
16.0
 40
16.0
 40
16.0
 40
17.0
 40
17.0
 40
17.0
 40
18.0
 40
18.0
 40
18.0
 40
19.0
 40
19.0
 40
19.0
 40
20.0
 40
20.0
 40
20.0
 40
21.0
 40
21.0
 40
21.0
 40
22.0
 40
22.0
 40
22.0
 40
23.0
 40
23.0
 40
23.0
 40
24.0
 40
24.0
 40
24.0
 40
25.0
 40
25.0
 40
25.0
 40
26.0
 40
26.0
 40
26.0
 40
27.0
 40
27.0
 40
27.0
 40
28.0
 40
28.0
 40
28.0
 40
29.0
 40
29.0
 40
29.0
 40
30.0
 40
30.0
 40
30.0
 40
31.0
 40
31.0
 40
31.0
 40
32.0
 40
32.0
 40
32.0
 40
33.0
 40
33.0
 40
33.0
 40
34.0
 40
34.0
 40
34.0
 40
35.0
 40
35.0
 40
35.0
 40
35.0
 10
126.3853949336814
 20
5.090645343779422
 30
0.0
 10
128.5950791779207
 20
5.090645343779422
 30
0.0
 10
130.3858398111535
 20
6.88157823178655
 30
0.0
 10
130.3858398111535
 20
9.090573456928746
 30
0.0
 10
130.3858398111535
 20
9.090573456928746
 30
0.0
 10
130.3858398111535
 20
11.14488389478322
 30
0.0
 10
130.3858398111535
 20
11.14488389478322
 30
0.0
 10
130.3858398111535
 20
13.35387911992542
 30
0.0
 10
128.5950791779207
 20
15.14481200793255
 30
0.0
 10
126.3853949336814
 20
15.14481200793255
 30
0.0
 10
126.3853949336814
 20
15.14481200793255
 30
0.0
 10
5.180906845492968
 20
15.14481200793255
 30
0.0
 10
5.180906845492968
 20
15.14481200793255
 30
0.0
 10
2.971911620350772
 20
15.14481200793255
 30
0.0
 10
1.180806477569382
 20
13.35387911992542
 30
0.0
 10
1.180806477569382
 20
11.14488389478322
 30
0.0
 10
1.180806477569382
 20
11.14488389478322
 30
0.0
 10
1.180806477569382
 20
9.090573456928746
 30
0.0
 10
1.180806477569382
 20
9.090573456928746
 30
0.0
 10
1.180806477569382
 20
6.88157823178655
 30
0.0
 10
2.971911620350772
 20
5.090645343779422
 30
0.0
 10
5.180906845492968
 20
5.090645343779422
 30
0.0
 10
5.180906845492968
 20
5.090645343779422
 30
0.0
 10
34.70882024956932
 20
5.090645343779422
 30
0.0
 10
34.70882024956932
 20
5.090645343779422
 30
0.0
 10
34.70882024956932
 20
5.090645343779422
 30
0.0
 10
34.70882024956932
 20
-16.14905734188288
 30
0.0
 10
34.70882024956932
 20
-16.14905734188288
 30
0.0
 10
34.56068114370358
 20
-16.14905734188288
 30
0.0
 10
34.42184379564802
 20
-16.14905734188288
 30
0.0
 10
34.28679605262622
 20
-16.14905734188288
 30
0.0
 10
24.88926458796171
 20
-16.14905734188288
 30
0.0
 10
17.25562201174512
 20
-16.14905734188288
 30
0.0
 10
7.858090547080617
 20
-16.14974636097993
 30
0.0
 10
4.592829046160821
 20
-16.14974636097993
 30
0.0
 10
1.944928656197796
 20
-18.36907687257787
 30
0.0
 10
1.374076334291898
 20
-21.58266194121892
 30
0.0
 10
1.354783799574498
 20
-21.69152695855281
 30
0.0
 10
1.322055392464625
 20
-21.79832491859556
 30
0.0
 10
1.295528157228201
 20
-21.90581189773535
 30
0.0
 10
1.295528157228201
 20
-22.41361897226118
 30
0.0
 10
1.295528157228201
 20
-22.921426046787
 30
0.0
 10
1.295528157228201
 20
-23.42992214040988
 30
0.0
 10
1.481218803883168
 20
-24.05968559511355
 30
0.0
 10
1.590083821217062
 20
-24.72527804286382
 30
0.0
 10
1.865691460037049
 20
-25.31370035174449
 30
0.0
 10
2.987414550034396
 20
-27.70683593057329
 30
0.0
 10
4.913222926289055
 20
-28.96153970630128
 30
0.0
 10
7.537007647855332
 20
-29.17375758819267
 30
0.0
 10
7.713396536700124
 20
-29.18822698923072
 30
0.0
 10
8.055839027933958
 20
-29.30949435031152
 30
0.0
 10
8.055839027933958
 20
-29.30949435031152
 30
0.0
 10
8.055839027933958
 20
-29.30949435031152
 30
0.0
 10
62.93155922905878
 20
-57.97337780668721
 30
0.0
 10
62.93155922905878
 20
-57.97337780668721
 30
0.0
 10
62.93155922905878
 20
-57.97337780668721
 30
0.0
 10
62.93155922905878
 20
-45.76740450244704
 30
0.0
 10
62.93155922905878
 20
-45.76740450244704
 30
0.0
 10
62.93155922905878
 20
-45.76740450244704
 30
0.0
 10
68.93153752616989
 20
-45.76740450244704
 30
0.0
 10
68.93153752616989
 20
-45.76740450244704
 30
0.0
 10
68.93153752616989
 20
-45.76740450244704
 30
0.0
 10
68.93153752616989
 20
-57.97337780668721
 30
0.0
 10
68.93153752616989
 20
-57.97337780668721
 30
0.0
 10
68.93153752616989
 20
-57.97337780668721
 30
0.0
 10
121.3714029644488
 20
-30.49667425452861
 30
0.0
 10
123.6830620350515
 20
-29.32396375134957
 30
0.0
 10
123.8897677641665
 20
-29.21923284859797
 30
0.0
 10
124.1309244481339
 20
-29.15377603437823
 30
0.0
 10
124.3617458456457
 20
-29.13034938507852
 30
0.0
 10
127.3458875549691
 20
-28.82718098237654
 30
0.0
 10
129.6292968425927
 20
-26.74083115650924
 30
0.0
 10
130.1901583875914
 20
-23.79303520455521
 30
0.0
 10
130.2080728841146
 20
-23.69863958825937
 30
0.0
 10
130.2439018771612
 20
-23.60700004835172
 30
0.0
 10
130.2707736219462
 20
-23.51398247024998
 30
0.0
 10
130.2707736219462
 20
-22.94967582976605
 30
0.0
 10
130.2707736219462
 20
-22.38536918928213
 30
0.0
 10
130.2707736219462
 20
-21.82106254879821
 30
0.0
 10
130.1081651150424
 20
-21.25675590831428
 30
0.0
 10
129.9972330404174
 20
-20.67108967582181
 30
0.0
 10
129.7739908529732
 20
-20.13227674192874
 30
0.0
 10
128.764577875795
 20
-17.69590521476005
 30
0.0
 10
126.4122666784664
 20
-16.15043538007697
 30
0.0
 10
123.7629882503093
 20
-16.14974636097993
 30
0.0
 10
114.355810518286
 20
-16.14836832278582
 30
0.0
 10
106.7132106938078
 20
-16.14905734188288
 30
0.0
 10
97.30603296178461
 20
-16.14905734188288
 30
0.0
 10
97.16616208508347
 20
-16.14905734188288
 30
0.0
 10
97.02009003650888
 20
-16.14905734188288
 30
0.0
 10
96.85679251050803
 20
-16.14905734188288
 30
0.0
 10
96.85679251050803
 20
-16.14905734188288
 30
0.0
 10
96.85679251050803
 20
-8.129736326092566
 30
0.0
 10
96.85679251050803
 20
-8.129736326092566
 30
0.0
 10
96.87401798793428
 20
-7.250375703482545
 30
0.0
 10
96.88642033168118
 20
-6.381867131651061
 30
0.0
 10
96.88642033168118
 20
-5.537990992539114
 30
0.0
 10
96.88642033168118
 20
-5.366769746922197
 30
0.0
 10
96.87401798793428
 20
-5.20037163498463
 30
0.0
 10
96.85679251050803
 20
-5.036212835112475
 30
0.0
 10
96.85679251050803
 20
-5.036212835112475
 30
0.0
 10
96.85679251050803
 20
5.090645343779422
 30
0.0
 10
96.85679251050803
 20
5.090645343779422
 30
0.0
 10
96.85679251050803
 20
5.090645343779422
 30
0.0
 10
126.3853949336814
 20
5.090645343779422
 30
0.0
 10
126.3853949336814
 20
5.090645343779422
 30
0.0
  0
SPLINE
  5
43
330
1F
100
AcDbEntity
  8
Layer 1
 62
    22
420
 15409703
370
    35
100
AcDbSpline
210
0.0
220
0.0
230
1.0
 70
    11
 71
     3
 72
    59
 73
    55
 74
     0
 42
0.0000000001
 43
0.0000000001
 40
0.0
 40
0.0
 40
0.0
 40
0.0
 40
1.0
 40
1.0
 40
1.0
 40
2.0
 40
2.0
 40
2.0
 40
3.0
 40
3.0
 40
3.0
 40
4.0
 40
4.0
 40
4.0
 40
5.0
 40
5.0
 40
5.0
 40
6.0
 40
6.0
 40
6.0
 40
7.0
 40
7.0
 40
7.0
 40
8.0
 40
8.0
 40
8.0
 40
9.0
 40
9.0
 40
9.0
 40
10.0
 40
10.0
 40
10.0
 40
11.0
 40
11.0
 40
11.0
 40
12.0
 40
12.0
 40
12.0
 40
13.0
 40
13.0
 40
13.0
 40
14.0
 40
14.0
 40
14.0
 40
15.0
 40
15.0
 40
15.0
 40
16.0
 40
16.0
 40
16.0
 40
17.0
 40
17.0
 40
17.0
 40
18.0
 40
18.0
 40
18.0
 40
18.0
 10
93.49713539329238
 20
-34.06786023453859
 30
0.0
 10
93.49713539329238
 20
-34.06786023453859
 30
0.0
 10
92.91560327538221
 20
-34.06786023453859
 30
0.0
 10
92.91560327538221
 20
-34.06786023453859
 30
0.0
 10
92.91560327538221
 20
-34.06786023453859
 30
0.0
 10
92.91560327538221
 20
-7.94749077492285
 30
0.0
 10
92.91560327538221
 20
-7.94749077492285
 30
0.0
 10
92.91560327538221
 20
-5.738495549780654
 30
0.0
 10
91.12484264214935
 20
-3.947562661773526
 30
0.0
 10
88.91584741700716
 20
-3.947562661773526
 30
0.0
 10
88.91584741700716
 20
-3.947562661773526
 30
0.0
 10
42.65079887171577
 20
-3.947562661773526
 30
0.0
 10
42.65079887171577
 20
-3.947562661773526
 30
0.0
 10
40.44180364657358
 20
-3.947562661773526
 30
0.0
 10
38.65104301334071
 20
-5.738495549780654
 30
0.0
 10
38.65104301334071
 20
-7.94749077492285
 30
0.0
 10
38.65104301334071
 20
-7.94749077492285
 30
0.0
 10
38.65104301334071
 20
-34.06786023453859
 30
0.0
 10
38.65104301334071
 20
-34.06786023453859
 30
0.0
 10
38.65104301334071
 20
-34.06786023453859
 30
0.0
 10
38.06916638588201
 20
-34.06786023453859
 30
0.0
 10
38.06916638588201
 20
-34.06786023453859
 30
0.0
 10
36.96432426376239
 20
-34.06786023453859
 30
0.0
 10
36.06928845669449
 20
-34.96358506070355
 30
0.0
 10
36.06928845669449
 20
-36.06808267327465
 30
0.0
 10
36.06928845669449
 20
-36.06808267327465
 30
0.0
 10
36.06928845669449
 20
-37.06371526851185
 30
0.0
 10
36.06928845669449
 20
-37.06371526851185
 30
0.0
 10
36.06928845669449
 20
-38.16821288108295
 30
0.0
 10
36.96432426376239
 20
-39.06393770724791
 30
0.0
 10
38.06916638588201
 20
-39.06393770724791
 30
0.0
 10
38.06916638588201
 20
-39.06393770724791
 30
0.0
 10
38.67102456715516
 20
-39.06393770724791
 30
0.0
 10
38.67102456715516
 20
-39.06393770724791
 30
0.0
 10
38.86946206710555
 20
-41.08758679528366
 30
0.0
 10
40.57547335140127
 20
-42.66888562301334
 30
0.0
 10
42.65079887171577
 20
-42.66888562301334
 30
0.0
 10
42.65079887171577
 20
-42.66888562301334
 30
0.0
 10
88.91584741700716
 20
-42.66888562301334
 30
0.0
 10
88.91584741700716
 20
-42.66888562301334
 30
0.0
 10
90.99117293732165
 20
-42.66888562301334
 30
0.0
 10
92.69649520252032
 20
-41.08758679528366
 30
0.0
 10
92.89562172156776
 20
-39.06393770724791
 30
0.0
 10
92.89562172156776
 20
-39.06393770724791
 30
0.0
 10
93.49713539329238
 20
-39.06393770724791
 30
0.0
 10
93.49713539329238
 20
-39.06393770724791
 30
0.0
 10
94.60232202496053
 20
-39.06393770724791
 30
0.0
 10
95.49735783202844
 20
-38.16821288108295
 30
0.0
 10
95.49735783202844
 20
-37.06371526851185
 30
0.0
 10
95.49735783202844
 20
-37.06371526851185
 30
0.0
 10
95.49735783202844
 20
-36.06808267327465
 30
0.0
 10
95.49735783202844
 20
-36.06808267327465
 30
0.0
 10
95.49735783202844
 20
-34.96358506070355
 30
0.0
 10
94.60232202496053
 20
-34.06786023453859
 30
0.0
 10
93.49713539329238
 20
-34.06786023453859
 30
0.0
  0
INSERT
  5
45
330
1F
100
AcDbEntity
  8
Layer 1
100
AcDbBlockReference
  2
block 3
 10
0.0
 20
0.0
 30
0.0
  0
INSERT
  5
4B
330
1F
100
AcDbEntity
  8
Layer 1
100
AcDbBlockReference
  2
block 4
 10
0.0
 20
0.0
 30
0.0
  0
ENDSEC
  0
SECTION
  2
OBJECTS
  0
DICTIONARY
  5
C
330
0
100
AcDbDictionary
281
     1
  3
ACAD_GROUP
350
D
  3
ACAD_LAYOUT
350
1A
  3
ACAD_MLINESTYLE
350
17
  3
ACAD_PLOTSETTINGS
350
19
  3
ACAD_PLOTSTYLENAME
350
E
  3
ACAD_TABLESTYLE
350
57
  3
ACAD_VISUALSTYLE
350
2A
  0
DICTIONARY
  5
D
102
{ACAD_REACTORS
330
C
102
}
330
C
100
AcDbDictionary
281
     1
  0
DICTIONARY
  5
1A
102
{ACAD_REACTORS
330
C
102
}
330
C
100
AcDbDictionary
281
     1
  3
Layout1
350
1E
  3
Layout2
350
26
  3
Model
350
22
  0
DICTIONARY
  5
17
102
{ACAD_REACTORS
330
C
102
}
330
C
100
AcDbDictionary
281
     1
  3
Standard
350
18
  0
DICTIONARY
  5
19
102
{ACAD_REACTORS
330
C
102
}
330
C
100
AcDbDictionary
281
     1
  0
ACDBDICTIONARYWDFLT
  5
E
102
{ACAD_REACTORS
330
C
102
}
330
C
100
AcDbDictionary
281
     1
  3
Normal
350
F
100
AcDbDictionaryWithDefault
340
F
  0
DICTIONARY
  5
57
102
{ACAD_REACTORS
330
C
102
}
330
C
100
AcDbDictionary
281
     1
  0
DICTIONARY
  5
2A
102
{ACAD_REACTORS
330
C
102
}
330
C
100
AcDbDictionary
281
     1
  3
2dWireframe
350
2F
  3
3D Hidden
350
31
  3
3dWireframe
350
30
  3
Basic
350
32
  3
Brighten
350
36
  3
ColorChange
350
3A
  3
Conceptual
350
34
  3
Dim
350
35
  3
Facepattern
350
39
  3
Flat
350
2B
  3
FlatWithEdges
350
2C
  3
Gouraud
350
2D
  3
GouraudWithEdges
350
2E
  3
Linepattern
350
38
  3
Realistic
350
33
  3
Thicken
350
37
  0
LAYOUT
  5
1E
102
{ACAD_REACTORS
330
1A
102
}
330
1A
100
AcDbPlotSettings
  1

  2
none_device
  4

  6

 40
0.0
 41
0.0
 42
0.0
 43
0.0
 44
0.0
 45
0.0
 46
0.0
 47
0.0
 48
0.0
 49
0.0
140
0.0
141
0.0
142
1.0
143
1.0
 70
   688
 72
     0
 73
     0
 74
     5
  7

 75
    16
 76
     0
 77
     2
 78
   300
147
1.0
148
0.0
149
0.0
100
AcDbLayout
  1
Layout1
 70
     1
 71
     1
 10
0.0
 20
0.0
 11
12.0
 21
9.0
 12
0.0
 22
0.0
 32
0.0
 14
1.000000000000000E+20
 24
1.000000000000000E+20
 34
1.000000000000000E+20
 15
-1.000000000000000E+20
 25
-1.000000000000000E+20
 35
-1.000000000000000E+20
146
0.0
 13
0.0
 23
0.0
 33
0.0
 16
1.0
 26
0.0
 36
0.0
 17
0.0
 27
1.0
 37
0.0
 76
     0
330
1B
  0
LAYOUT
  5
26
102
{ACAD_REACTORS
330
1A
102
}
330
1A
100
AcDbPlotSettings
  1

  2
none_device
  4

  6

 40
0.0
 41
0.0
 42
0.0
 43
0.0
 44
0.0
 45
0.0
 46
0.0
 47
0.0
 48
0.0
 49
0.0
140
0.0
141
0.0
142
1.0
143
1.0
 70
   688
 72
     0
 73
     0
 74
     5
  7

 75
    16
 76
     0
 77
     2
 78
   300
147
1.0
148
0.0
149
0.0
100
AcDbLayout
  1
Layout2
 70
     1
 71
     2
 10
0.0
 20
0.0
 11
0.0
 21
0.0
 12
0.0
 22
0.0
 32
0.0
 14
0.0
 24
0.0
 34
0.0
 15
0.0
 25
0.0
 35
0.0
146
0.0
 13
0.0
 23
0.0
 33
0.0
 16
1.0
 26
0.0
 36
0.0
 17
0.0
 27
1.0
 37
0.0
 76
     0
330
23
  0
LAYOUT
  5
22
102
{ACAD_REACTORS
330
1A
102
}
330
1A
100
AcDbPlotSettings
  1

  2
none_device
  4

  6

 40
0.0
 41
0.0
 42
0.0
 43
0.0
 44
0.0
 45
0.0
 46
0.0
 47
0.0
 48
0.0
 49
0.0
140
0.0
141
0.0
142
1.0
143
1.0
 70
  1712
 72
     0
 73
     0
 74
     0
  7

 75
     0
 76
     0
 77
     2
 78
   300
147
1.0
148
0.0
149
0.0
100
AcDbLayout
  1
Model
 70
     1
 71
     0
 10
0.0
 20
0.0
 11
12.0
 21
9.0
 12
0.0
 22
0.0
 32
0.0
 14
1.000000000000000E+20
 24
1.000000000000000E+20
 34
1.000000000000000E+20
 15
-1.000000000000000E+20
 25
-1.000000000000000E+20
 35
-1.000000000000000E+20
146
0.0
 13
0.0
 23
0.0
 33
0.0
 16
1.0
 26
0.0
 36
0.0
 17
0.0
 27
1.0
 37
0.0
 76
     0
330
1F
331
29
  0
MLINESTYLE
  5
18
102
{ACAD_REACTORS
330
17
102
}
330
17
100
AcDbMlineStyle
  2
Standard
 70
     0
  3

 62
   256
 51
90.0
 52
90.0
 71
     2
 49
0.5
 62
   256
  6
BYLAYER
 49
-0.5
 62
   256
  6
BYLAYER
  0
ACDBPLACEHOLDER
  5
F
102
{ACAD_REACTORS
330
E
102
}
330
E
  0
VISUALSTYLE
  5
2F
102
{ACAD_REACTORS
330
2A
102
}
330
2A
100
AcDbVisualStyle
  2
2dWireframe
 70
     4
 71
     0
 72
     2
 73
     0
 90
        0
 40
-0.6
 41
-30.0
 62
     5
 63
     7
421
 16777215
 74
     1
 91
        4
 64
     7
 65
   257
 75
     1
175
     1
 42
1.0
 92
        0
 66
   257
 43
1.0
 76
     1
 77
     6
 78
     2
 67
     7
 79
     5
170
     0
171
     0
290
     0
174
     0
 93
        1
 44
0.0
173
     0
291
     0
 45
0.0
1001
ACAD
1000
AcDbSavedByObjectVersion
1070
     0
  0
VISUALSTYLE
  5
31
102
{ACAD_REACTORS
330
2A
102
}
330
2A
100
AcDbVisualStyle
  2
3D Hidden
 70
     6
 71
     1
 72
     2
 73
     2
 90
        0
 40
-0.6
 41
-30.0
 62
     5
 63
     7
421
 16777215
 74
     2
 91
        2
 64
     7
 65
   257
 75
     2
175
     1
 42
40.0
 92
        0
 66
   257
 43
1.0
 76
     1
 77
     6
 78
     2
 67
     7
 79
     3
170
     0
171
     0
290
     0
174
     0
 93
        1
 44
0.0
173
     0
291
     0
 45
0.0
1001
ACAD
1000
AcDbSavedByObjectVersion
1070
     0
  0
VISUALSTYLE
  5
30
102
{ACAD_REACTORS
330
2A
102
}
330
2A
100
AcDbVisualStyle
  2
3dWireframe
 70
     5
 71
     0
 72
     2
 73
     0
 90
        0
 40
-0.6
 41
-30.0
 62
     5
 63
     7
421
 16777215
 74
     1
 91
        4
 64
     7
 65
   257
 75
     1
175
     1
 42
1.0
 92
        0
 66
   257
 43
1.0
 76
     1
 77
     6
 78
     2
 67
     7
 79
     5
170
     0
171
     0
290
     0
174
     0
 93
        1
 44
0.0
173
     0
291
     0
 45
0.0
1001
ACAD
1000
AcDbSavedByObjectVersion
1070
     0
  0
VISUALSTYLE
  5
32
102
{ACAD_REACTORS
330
2A
102
}
330
2A
100
AcDbVisualStyle
  2
Basic
 70
     7
 71
     1
 72
     0
 73
     1
 90
        0
 40
-0.6
 41
-30.0
 62
     5
 63
     7
421
 16777215
 74
     0
 91
        4
 64
     7
 65
   257
 75
     1
175
     1
 42
1.0
 92
        8
 66
     7
 43
1.0
 76
     1
 77
     6
 78
     2
 67
     7
 79
     5
170
     0
171
     0
290
     0
174
     0
 93
        1
 44
0.0
173
     0
291
     1
 45
0.0
1001
ACAD
1000
AcDbSavedByObjectVersion
1070
     0
  0
VISUALSTYLE
  5
36
102
{ACAD_REACTORS
330
2A
102
}
330
2A
100
AcDbVisualStyle
  2
Brighten
 70
    12
 71
     2
 72
     2
 73
     0
 90
        0
 40
-0.6
 41
-30.0
 62
     5
 63
     7
421
 16777215
 74
     1
 91
        4
 64
     7
 65
   257
 75
     1
175
     1
 42
1.0
 92
        8
 66
     7
 43
1.0
 76
     1
 77
     6
 78
     2
 67
     7
 79
     5
170
     0
171
     0
290
     0
174
     0
 93
        1
 44
50.0
173
     0
291
     1
 45
0.0
1001
ACAD
1000
AcDbSavedByObjectVersion
1070
     0
  0
VISUALSTYLE
  5
3A
102
{ACAD_REACTORS
330
2A
102
}
330
2A
100
AcDbVisualStyle
  2
ColorChange
 70
    16
 71
     2
 72
     2
 73
     3
 90
        0
 40
-0.6
 41
-30.0
 62
     5
 63
     8
421
  8421504
 74
     1
 91
        4
 64
     7
 65
   257
 75
     1
175
     1
 42
1.0
 92
        8
 66
     8
424
  8421504
 43
1.0
 76
     1
 77
     6
 78
     2
 67
     7
 79
     5
170
     0
171
     0
290
     0
174
     0
 93
        1
 44
0.0
173
     0
291
     1
 45
0.0
1001
ACAD
1000
AcDbSavedByObjectVersion
1070
     0
  0
VISUALSTYLE
  5
34
102
{ACAD_REACTORS
330
2A
102
}
330
2A
100
AcDbVisualStyle
  2
Conceptual
 70
     9
 71
     3
 72
     2
 73
     0
 90
        0
 40
-0.6
 41
-30.0
 62
     5
 63
     7
421
 16777215
 74
     2
 91
        2
 64
     7
 65
   257
 75
     1
175
     1
 42
40.0
 92
        8
 66
     7
 43
1.0
 76
     1
 77
     6
 78
     2
 67
     7
 79
     3
170
     0
171
     0
290
     0
174
     0
 93
        1
 44
0.0
173
     0
291
     0
 45
0.0
1001
ACAD
1000
AcDbSavedByObjectVersion
1070
     0
  0
VISUALSTYLE
  5
35
102
{ACAD_REACTORS
330
2A
102
}
330
2A
100
AcDbVisualStyle
  2
Dim
 70
    11
 71
     2
 72
     2
 73
     0
 90
        0
 40
-0.6
 41
-30.0
 62
     5
 63
     7
421
 16777215
 74
     1
 91
        4
 64
     7
 65
   257
 75
     1
175
     1
 42
1.0
 92
        8
 66
     7
 43
1.0
 76
     1
 77
     6
 78
     2
 67
     7
 79
     5
170
     0
171
     0
290
     0
174
     0
 93
        1
 44
-50.0
173
     0
291
     1
 45
0.0
1001
ACAD
1000
AcDbSavedByObjectVersion
1070
     0
  0
VISUALSTYLE
  5
39
102
{ACAD_REACTORS
330
2A
102
}
330
2A
100
AcDbVisualStyle
  2
Facepattern
 70
    15
 71
     2
 72
     2
 73
     0
 90
        0
 40
-0.6
 41
-30.0
 62
     5
 63
     7
421
 16777215
 74
     1
 91
        4
 64
     7
 65
   257
 75
     1
175
     1
 42
1.0
 92
        8
 66
     7
 43
1.0
 76
     1
 77
     6
 78
     2
 67
     7
 79
     5
170
     0
171
     0
290
     0
174
     0
 93
        1
 44
0.0
173
     0
291
     1
 45
0.0
1001
ACAD
1000
AcDbSavedByObjectVersion
1070
     0
  0
VISUALSTYLE
  5
2B
102
{ACAD_REACTORS
330
2A
102
}
330
2A
100
AcDbVisualStyle
  2
Flat
 70
     0
 71
     2
 72
     1
 73
     1
 90
        2
 40
-0.6
 41
30.0
 62
     5
 63
     7
421
 16777215
 74
     0
 91
        4
 64
     7
 65
   257
 75
     1
175
     1
 42
1.0
 92
        8
 66
     7
 43
1.0
 76
     1
 77
     6
 78
     2
 67
     7
 79
     5
170
     0
171
     0
290
     0
174
     0
 93
       13
 44
0.0
173
     0
291
     1
 45
0.0
1001
ACAD
1000
AcDbSavedByObjectVersion
1070
     0
  0
VISUALSTYLE
  5
2C
102
{ACAD_REACTORS
330
2A
102
}
330
2A
100
AcDbVisualStyle
  2
FlatWithEdges
 70
     1
 71
     2
 72
     1
 73
     1
 90
        2
 40
-0.6
 41
30.0
 62
     5
 63
     7
421
 16777215
 74
     1
 91
        4
 64
     7
 65
   257
 75
     1
175
     1
 42
1.0
 92
        0
 66
   257
 43
1.0
 76
     1
 77
     6
 78
     2
 67
     7
 79
     5
170
     0
171
     0
290
     0
174
     0
 93
       13
 44
0.0
173
     0
291
     1
 45
0.0
1001
ACAD
1000
AcDbSavedByObjectVersion
1070
     0
  0
VISUALSTYLE
  5
2D
102
{ACAD_REACTORS
330
2A
102
}
330
2A
100
AcDbVisualStyle
  2
Gouraud
 70
     2
 71
     2
 72
     2
 73
     1
 90
        2
 40
-0.6
 41
30.0
 62
     5
 63
     7
421
 16777215
 74
     0
 91
        4
 64
     7
 65
   257
 75
     1
175
     1
 42
1.0
 92
        0
 66
     7
 43
1.0
 76
     1
 77
     6
 78
     2
 67
     7
 79
     5
170
     0
171
     0
290
     0
174
     0
 93
       13
 44
0.0
173
     0
291
     1
 45
0.0
1001
ACAD
1000
AcDbSavedByObjectVersion
1070
     0
  0
VISUALSTYLE
  5
2E
102
{ACAD_REACTORS
330
2A
102
}
330
2A
100
AcDbVisualStyle
  2
GouraudWithEdges
 70
     3
 71
     2
 72
     2
 73
     1
 90
        2
 40
-0.6
 41
30.0
 62
     5
 63
     7
421
 16777215
 74
     1
 91
        4
 64
     7
 65
   257
 75
     1
175
     1
 42
1.0
 92
        0
 66
   257
 43
1.0
 76
     1
 77
     6
 78
     2
 67
     7
 79
     5
170
     0
171
     0
290
     0
174
     0
 93
       13
 44
0.0
173
     0
291
     1
 45
0.0
1001
ACAD
1000
AcDbSavedByObjectVersion
1070
     0
  0
VISUALSTYLE
  5
38
102
{ACAD_REACTORS
330
2A
102
}
330
2A
100
AcDbVisualStyle
  2
Linepattern
 70
    14
 71
     2
 72
     2
 73
     0
 90
        0
 40
-0.6
 41
-30.0
 62
     5
 63
     7
421
 16777215
 74
     1
 91
        4
 64
     7
 65
   257
 75
     7
175
     7
 42
1.0
 92
        8
 66
     7
 43
1.0
 76
     1
 77
     6
 78
     2
 67
     7
 79
     5
170
     0
171
     0
290
     0
174
     0
 93
        1
 44
0.0
173
     0
291
     1
 45
0.0
1001
ACAD
1000
AcDbSavedByObjectVersion
1070
     0
  0
VISUALSTYLE
  5
33
102
{ACAD_REACTORS
330
2A
102
}
330
2A
100
AcDbVisualStyle
  2
Realistic
 70
     8
 71
     2
 72
     2
 73
     0
 90
        0
 40
-0.6
 41
-30.0
 62
     5
 63
     7
421
 16777215
 74
     1
 91
        0
 64
     7
 65
   257
 75
     1
175
     1
 42
1.0
 92
        8
 66
     8
424
  7895160
 43
1.0
 76
     1
 77
     6
 78
     2
 67
     7
 79
     5
170
     0
171
     0
290
     0
174
     0
 93
       13
 44
0.0
173
     0
291
     0
 45
0.0
1001
ACAD
1000
AcDbSavedByObjectVersion
1070
     0
  0
VISUALSTYLE
  5
37
102
{ACAD_REACTORS
330
2A
102
}
330
2A
100
AcDbVisualStyle
  2
Thicken
 70
    13
 71
     2
 72
     2
 73
     0
 90
        0
 40
-0.6
 41
-30.0
 62
     5
 63
     7
421
 16777215
 74
     1
 91
        4
 64
     7
 65
   257
 75
     1
175
     1
 42
1.0
 92
       12
 66
     7
 43
1.0
 76
     1
 77
     6
 78
     2
 67
     7
 79
     5
170
     0
171
     0
290
     0
174
     0
 93
        1
 44
0.0
173
     0
291
     1
 45
0.0
1001
ACAD
1000
AcDbSavedByObjectVersion
1070
     0
  0
ENDSEC
  0
EOF
